<svg xmlns="http://www.w3.org/2000/svg" width="24" height="24" viewBox="0 0 24 24"><g><g opacity=".5"><g opacity=".5"><path fill="#414448" d="M4 24a4 4 0 0 1-4-4V4a4 4 0 0 1 4-4h16a4 4 0 0 1 4 4v16a4 4 0 0 1-4 4z"/></g><g opacity=".5"><path fill="#fff" d="M14.579 9.42a4.421 4.421 0 0 1 4.42 4.422V19h-2.947v-5.158a1.474 1.474 0 0 0-2.947 0V19h-2.947v-5.158a4.421 4.421 0 0 1 4.42-4.421z"/></g><g opacity=".5"><path fill="#fff" d="M5 10.158h2.947V19H5z"/></g><g opacity=".5"><path fill="#fff" d="M5 6.5a1.5 1.5 0 1 1 3 0 1.5 1.5 0 0 1-3 0z"/></g></g></g></svg>