<svg xmlns="http://www.w3.org/2000/svg" width="31" height="32" viewBox="0 0 31 32"><g><g clip-path="url(#clip-dc65ad0c-676f-4279-b411-55b776027ef2)" opacity=".5"><g opacity=".5"><path fill="none" stroke="#999" stroke-linecap="round" stroke-linejoin="round" stroke-miterlimit="20" stroke-width="3.14" d="M3.713 29.783a3.135 3.135 0 0 1-3.135-3.135V4.702a3.135 3.135 0 0 1 3.135-3.135h21.945a3.135 3.135 0 0 1 3.135 3.135v21.946a3.135 3.135 0 0 1-3.135 3.135z"/></g><g opacity=".5"><path fill="none" stroke="#999" stroke-linecap="round" stroke-linejoin="round" stroke-miterlimit="20" stroke-width="3.14" d="M6.848 10.189a2.351 2.351 0 1 1 4.702 0 2.351 2.351 0 0 1-4.702 0z"/></g><g opacity=".5"><path fill="none" stroke="#999" stroke-linecap="round" stroke-linejoin="round" stroke-miterlimit="20" stroke-width="3.14" d="M28.793 20.378v0l-7.837-7.838v0L3.713 29.783v0"/></g></g></g></svg>