<svg xmlns="http://www.w3.org/2000/svg" width="50" height="50" viewBox="0 0 50 50"><defs><clipPath id="r6z6a"><path fill="#fff" d="M0 50V0h50v50z"/></clipPath><linearGradient id="r6z6c" x1="25.3" x2="25" y1="6.17" y2="46.5" gradientUnits="userSpaceOnUse"><stop offset="0" stop-color="#0e3570"/><stop offset="1" stop-color="#00a2e0"/></linearGradient><clipPath id="r6z6b"><path d="M0 50V0h50v50z"/></clipPath></defs><g><g><g><path fill="#fff" d="M0 50V0h50v50z"/><path fill="none" stroke="#707070" stroke-miterlimit="20" stroke-width="2" d="M0 50v0V0v0h50v50z" clip-path="url(&quot;#r6z6a&quot;)"/></g><g clip-path="url(#r6z6b)" transform="rotate(30 25 25)"><path fill="url(#r6z6c)" d="M37.5 3.5L50 25 37.5 46.5h-25L0 25 12.5 3.5z"/></g><g clip-path="url(#r6z6b)" transform="rotate(30 25 25)"><path fill="#fff" d="M31 15l6 10-6 10H19l-6-10 6-10z"/></g><g clip-path="url(#r6z6b)"><path fill="#0e3570" d="M30.05 18.963v12.074h-2.205l-5.253-7.6h-.089v7.6H19.95V18.963h2.24l5.212 7.593h.106v-7.593z"/></g></g></g></svg>