<svg xmlns="http://www.w3.org/2000/svg" width="24" height="24" viewBox="0 0 24 24"><defs><linearGradient id="7uipa" x1="12" x2="12" y1="1" y2="23" gradientUnits="userSpaceOnUse"><stop offset="0" stop-color="#8641b2"/><stop offset="1" stop-color="#ffec05"/></linearGradient><linearGradient id="7uipb" x1="12.04" x2="12.04" y1="6.96" y2="16.96" gradientUnits="userSpaceOnUse"><stop offset="0" stop-color="#8641b2"/><stop offset="1" stop-color="#ffec05"/></linearGradient><linearGradient id="7uipc" x1="17.5" x2="17.5" y1="5.5" y2="7.5" gradientUnits="userSpaceOnUse"><stop offset="0" stop-color="#8641b2"/><stop offset="1" stop-color="#ffec05"/></linearGradient><linearGradient id="7uipd" x1="1" x2="26.43" y1="1" y2="14.9" gradientUnits="userSpaceOnUse"><stop offset="0" stop-color="#de2f76" stop-opacity="0"/><stop offset="1" stop-color="#de2f76"/></linearGradient><linearGradient id="7uipe" x1="7.04" x2="18.6" y1="6.96" y2="13.28" gradientUnits="userSpaceOnUse"><stop offset="0" stop-color="#de2f76" stop-opacity="0"/><stop offset="1" stop-color="#de2f76"/></linearGradient><linearGradient id="7uipf" x1="16.5" x2="18.82" y1="5.5" y2="6.76" gradientUnits="userSpaceOnUse"><stop offset="0" stop-color="#de2f76" stop-opacity="0"/><stop offset="1" stop-color="#de2f76"/></linearGradient></defs><g><g><g/><g><g><path fill="url(#7uipa)" d="M7 21c-2.206 0-4-1.794-4-4V7c0-2.206 1.794-4 4-4h10c2.206 0 4 1.794 4 4v10c0 2.206-1.794 4-4 4zM1 7v10c0 3.308 2.692 6 6 6h10c3.308 0 6-2.692 6-6V7c0-3.308-2.692-6-6-6H7C3.692 1 1 3.692 1 7z"/></g><g><path fill="url(#7uipb)" d="M9.922 14.078a2.995 2.995 0 0 1-.558-3.47 2.984 2.984 0 0 1 3.12-1.619 2.983 2.983 0 0 1 2.527 2.528 2.995 2.995 0 0 1-2.967 3.44 2.982 2.982 0 0 1-2.122-.879zm-2.345-4.37a4.991 4.991 0 0 0 .93 5.784 4.969 4.969 0 0 0 3.537 1.465c.776 0 1.553-.185 2.247-.534a4.991 4.991 0 0 0 2.698-5.2 4.965 4.965 0 0 0-1.41-2.802 4.965 4.965 0 0 0-3.537-1.464c-1.9 0-3.61 1.054-4.465 2.752z"/></g><g><path fill="url(#7uipc)" d="M17.51 7.5h-.01a1 1 0 1 1 0-2h.01a1 1 0 0 1 0 2z"/></g></g><g><g><path fill="url(#7uipd)" d="M7 21c-2.206 0-4-1.794-4-4V7c0-2.206 1.794-4 4-4h10c2.206 0 4 1.794 4 4v10c0 2.206-1.794 4-4 4zM1 7v10c0 3.308 2.692 6 6 6h10c3.308 0 6-2.692 6-6V7c0-3.308-2.692-6-6-6H7C3.692 1 1 3.692 1 7z"/></g><g><path fill="url(#7uipe)" d="M9.922 14.078a2.995 2.995 0 0 1-.558-3.47 2.984 2.984 0 0 1 3.12-1.619 2.983 2.983 0 0 1 2.527 2.528 2.995 2.995 0 0 1-2.967 3.44 2.982 2.982 0 0 1-2.122-.879zm-2.345-4.37a4.991 4.991 0 0 0 .93 5.784 4.969 4.969 0 0 0 3.537 1.465c.776 0 1.553-.185 2.247-.534a4.991 4.991 0 0 0 2.698-5.2 4.965 4.965 0 0 0-1.41-2.802 4.965 4.965 0 0 0-3.537-1.464c-1.9 0-3.61 1.054-4.465 2.752z"/></g><g><path fill="url(#7uipf)" d="M17.51 7.5h-.01a1 1 0 1 1 0-2h.01a1 1 0 0 1 0 2z"/></g></g></g></g></svg>