<svg xmlns="http://www.w3.org/2000/svg" width="16" height="16" viewBox="0 0 16 16"><g><g><g><path fill="#cdbdb2" d="M4.578 14.707l2.096.622v-.814l.171-.192h1.198v1.629H6.76l-1.583-.766z"/></g><g transform="rotate(-180 9.71 15.135)"><path fill="#cdbdb2" d="M8 15.569l2.054-.623v.814l.171.192h1.198V14.324H10.14l-1.583.766z"/></g><g><path fill="#393939" d="M6.845 12.934l-.17 1.58.213-.19h2.225l.256.19-.17-1.58-.343-.24-1.711.049z"/></g><g><path fill="#f89c35" d="M5.69 2.251l1.027 2.683.47 7.809h1.67l.512-7.809.942-2.683z"/></g><g><path fill="#f89d35" d="M1.198 8.144L0 12.024l2.995-.192H4.92v-1.676l-.085-3.45-.428.384z"/></g><g><path fill="#d87c30" d="M3.466 8.575l3.508.096-.385 2.012-1.669-.48z"/></g><g><path fill="#ea8d3a" d="M3.466 8.623l1.454 1.533v1.533z"/></g><g><path fill="#f89d35" d="M4.92 10.204l1.712.479.556 2.06-.385.239-1.883-1.245z"/></g><g><path fill="#eb8f35" d="M4.92 11.736l-.342 2.97 2.267-1.772z"/></g><g><path fill="#ea8e3a" d="M6.974 8.67l.214 4.073-.642-2.084z"/></g><g><path fill="#d87c30" d="M2.952 11.784l1.968-.048-.342 2.97z"/></g><g><path fill="#eb8f35" d="M.942 16l3.636-1.293-1.626-2.923-2.952.24z"/></g><g><path fill="#e8821e" d="M6.717 4.934L4.877 6.66 3.467 8.575l3.508.144z"/></g><g><path fill="#dfcec3" d="M4.578 14.707l2.267-1.773-.17 1.533v.862l-1.54-.335z"/></g><g transform="rotate(-180 10.31 14.13)"><path fill="#dfcec3" d="M9.198 13.557l2.225 1.772-.171-1.533v-.862l-1.54.336z"/></g><g transform="rotate(-180 5.665 10.08)"><path fill="#393939" d="M5.305 10.635l-.47-1.102 1.668.479z"/></g><g><path fill="#e88f35" d="M.899 0l5.818 4.934-.984-2.683z"/></g><g><path fill="#8e5a30" d="M.899 0l-.77 2.635.428 2.874-.3.192.428.43-.342.336.47.48-.3.287.685.958L4.407 7.09c1.569-1.405 2.339-2.124 2.31-2.156C6.69 4.902 4.75 3.257.9 0z"/></g><g transform="rotate(-180 12.405 8)"><g><path fill="#f89d35" d="M10.011 7.856l-1.198-3.88 2.995.192h1.925v1.676l-.085 3.45-.428-.384z"/></g><g><path fill="#d87c30" d="M12.279 7.425l3.508-.096-.385-2.012-1.669.48z"/></g><g><path fill="#ea8d3a" d="M12.279 7.377l1.454-1.533V4.311z"/></g><g><path fill="#f89d35" d="M13.733 5.796l1.711-.479.556-2.06-.385-.239-1.882 1.245z"/></g><g><path fill="#eb8f35" d="M13.733 4.263l-.342-2.97 2.224 1.725z"/></g><g><path fill="#ea8e3a" d="M15.787 7.33L16 3.256l-.641 2.084z"/></g><g><path fill="#d87c30" d="M11.765 4.216l1.968.048-.342-2.97z"/></g><g><path fill="#eb8f35" d="M9.754 0l3.637 1.293-1.626 2.923-2.952-.24z"/></g><g><path fill="#e8821e" d="M15.53 11.066L13.69 9.34 12.28 7.425l3.508-.144z"/></g><g transform="rotate(-180 14.485 5.92)"><path fill="#393939" d="M14.118 5.365l-.47 1.102 1.668-.479z"/></g><g><path fill="#e88f35" d="M9.712 16l5.818-4.934-.984 2.683z"/></g><g><path fill="#8e5a30" d="M9.712 16l-.77-2.635.427-2.874-.3-.192.429-.43-.342-.336.47-.48-.3-.287.685-.958L13.22 8.91c1.568 1.405 2.338 2.124 2.31 2.156-.029.032-1.968 1.677-5.818 4.934z"/></g></g></g></g></svg>