<svg xmlns="http://www.w3.org/2000/svg" width="36" height="36" viewBox="0 0 36 36"><g><g><g><path fill="#1d1e1f" d="M4 36a4 4 0 0 1-4-4V4a4 4 0 0 1 4-4h28a4 4 0 0 1 4 4v28a4 4 0 0 1-4 4z"/></g><g><path fill="#6dc24b" d="M36 6.09v23.82H13.432v-2.792c.475.046.959.077 1.462.077 5.223 0 14.437-2.668 18.39-5.978-.58-.588-3.403-1.93-4.092-2.483-4.158 3.589-8.451 6.621-14.389 6.621-.476 0-.932-.033-1.371-.088V23.28c-5.492-.98-7.016-6.688-7.016-6.688s2.637-2.921 7.016-3.395v1.861h-.009c-2.298-.276-4.094 1.87-4.094 1.87s1.007 3.615 4.103 4.656v1.695a9.4 9.4 0 0 0 1.646.146c6.38 0 12.505-7.447 12.505-7.447S22.251 8.99 14.067 9.266c-.213.007-.424.02-.635.037V6.089zm-22.568 4.955V9.303C6.233 9.88 0 15.978 0 15.978s3.53 10.206 13.432 11.14v-1.851c-7.263-.914-9.751-8.914-9.754-8.923.003-.004 3.258-4.802 9.754-5.299zm0 2.152v-2.152c.209-.014.42-.026.635-.032 5.885-.185 9.746 5.057 9.746 5.057s-4.17 5.792-8.642 5.792c-.643 0-1.22-.104-1.74-.278v-6.526c2.292.277 2.753 1.29 4.13 3.585l3.064-2.583s-2.237-2.933-6.006-2.933c-.41 0-.802.03-1.187.07"/></g></g></g></svg>