<svg xmlns="http://www.w3.org/2000/svg" width="18" height="18" viewBox="0 0 18 18"><g><g><g><path fill="none" stroke="#fff" stroke-linecap="round" stroke-linejoin="round" stroke-miterlimit="20" stroke-width="2" d="M6.09 16.238c0-.42.327-.762.728-.762.402 0 .727.341.727.762 0 .42-.325.762-.727.762-.401 0-.727-.341-.727-.762z"/></g><g><path fill="none" stroke="#fff" stroke-linecap="round" stroke-linejoin="round" stroke-miterlimit="20" stroke-width="2" d="M14.09 16.238c0-.42.327-.762.728-.762.402 0 .727.341.727.762 0 .42-.325.762-.727.762-.401 0-.727-.341-.727-.762z"/></g><g><path fill="none" stroke="#fff" stroke-linecap="round" stroke-linejoin="round" stroke-miterlimit="20" stroke-width="2" d="M1 1v0h2.91v0l1.948 10.202c.137.724.75 1.24 1.455 1.227h7.069c.704.014 1.317-.503 1.454-1.227L17 4.81v0H4.636v0"/></g></g></g></svg>