<svg xmlns="http://www.w3.org/2000/svg" width="16" height="14" viewBox="0 0 16 14"><g><g><path fill="#fc531f" d="M1.128 0L14.52 12.482l-1.128 1.051-3.208-2.99H8.8v-1.29L6.984 7.561H4.8V6.069h.584L3.728 4.526c-1.24.127-2.208 1.103-2.208 2.289C1.52 8.09 2.632 9.127 4 9.127h3.2v1.416H4c-2.208 0-4-1.67-4-3.728C0 5.257 1.032 3.922 2.488 3.37L0 1.051zM16 6.815c0 1.335-.76 2.505-1.896 3.162l-1.12-1.044c.88-.35 1.496-1.171 1.496-2.118 0-1.275-1.112-2.311-2.48-2.311H8.8V3.087H12c2.208 0 4 1.67 4 3.728zm-4.8-.746v1.2l-1.288-1.2z"/></g></g></svg>