<svg xmlns="http://www.w3.org/2000/svg" width="24" height="17" viewBox="0 0 24 17"><g><g><g><path fill="#c4302b" d="M23.498 2.64A3.033 3.033 0 0 0 21.38.458C19.505 0 12 0 12 0S4.495 0 2.619.502A3.033 3.033 0 0 0 .502 2.683a31.635 31.635 0 0 0-.501 5.771c-.013 1.95.155 3.896.501 5.814a3.033 3.033 0 0 0 2.117 2.095c1.876.502 9.381.502 9.381.502s7.505 0 9.381-.502a3.033 3.033 0 0 0 2.117-2.182c.34-1.89.508-3.807.501-5.727a31.635 31.635 0 0 0-.501-5.814z"/></g><g><path fill="#fff" d="M9 12.134l6.272-3.567L9 5v7.134z"/></g></g></g></svg>